<?xml version="1.0" standalone="no"?>
<!DOCTYPE svg PUBLIC "-//W3C//DTD SVG 20010904//EN"
 "http://www.w3.org/TR/2001/REC-SVG-20010904/DTD/svg10.dtd">
<svg version="1.0" xmlns="http://www.w3.org/2000/svg"
 width="1460.000000pt" height="1460.000000pt" viewBox="0 0 1460.000000 1460.000000"
 preserveAspectRatio="xMidYMid meet">

<g transform="translate(0.000000,1460.000000) scale(0.100000,-0.100000)"
fill="#fff" stroke="none">
<path d="M7025 13940 c-1655 -72 -3221 -761 -4394 -1931 -1493 -1490 -2180
-3564 -1875 -5659 203 -1392 863 -2704 1865 -3709 1490 -1493 3564 -2180 5659
-1875 1032 150 2038 558 2895 1174 948 681 1711 1614 2183 2670 516 1154 690
2418 506 3680 -203 1392 -863 2704 -1865 3709 -1042 1044 -2374 1702 -3832
1892 -342 44 -795 64 -1142 49z m2665 -3591 c197 -23 395 -80 492 -141 96 -60
136 -209 125 -453 -7 -130 -27 -217 -60 -252 -31 -35 -81 -29 -214 23 -183 71
-292 95 -469 101 -117 4 -169 2 -235 -11 -300 -59 -454 -265 -515 -692 -12
-80 -17 -224 -21 -536 l-5 -428 565 0 565 0 30 -25 c66 -55 97 -191 89 -384
-6 -141 -24 -214 -64 -262 -51 -60 -41 -59 -638 -59 l-545 0 -2 -2134 -3
-2135 -29 -30 c-54 -57 -175 -81 -403 -81 -192 0 -292 13 -363 48 -100 49 -90
-196 -90 2215 l0 2117 -200 0 -200 0 0 -1087 c0 -1061 -1 -1089 -20 -1120 -39
-65 -145 -93 -355 -93 -231 0 -337 27 -369 94 -13 28 -16 76 -16 286 l0 251
-102 -95 c-137 -126 -210 -184 -350 -276 -338 -223 -686 -329 -1074 -330 -518
-1 -950 144 -1243 417 -195 181 -331 428 -393 716 -30 139 -33 493 -5 632 27
138 61 240 115 350 230 466 715 761 1458 885 274 46 387 52 943 57 l533 5 -5
321 c-6 324 -11 377 -52 537 -73 283 -264 487 -539 579 -157 52 -263 65 -516
65 -259 0 -393 -18 -594 -79 -247 -75 -373 -131 -829 -368 -92 -48 -157 -55
-204 -22 -77 56 -115 228 -95 426 13 125 33 176 95 239 122 125 456 289 784
384 353 102 611 139 963 139 1055 -3 1639 -387 1809 -1188 41 -196 52 -320 58
-662 l6 -333 198 0 199 0 0 293 c1 718 60 1089 230 1427 61 122 112 192 214
298 229 237 534 358 961 381 144 8 257 5 385 -10z"/>
<path d="M5660 7280 c-488 -27 -841 -159 -1033 -388 -62 -73 -130 -215 -154
-317 -24 -109 -24 -311 0 -420 59 -260 244 -464 498 -549 222 -74 525 -74 761
0 248 78 502 255 781 542 l107 111 0 515 0 516 -412 -2 c-227 0 -474 -4 -548
-8z"/>
</g>
</svg>
