<svg version="1.1" id="Layer_1" xmlns="http://www.w3.org/2000/svg" xmlns:xlink="http://www.w3.org/1999/xlink" x="0px" y="0px"
	 width="100%" viewBox="0 0 990 994" enable-background="new 0 0 990 994" xml:space="preserve">
<path opacity="0.000000" stroke="none" 
	d="
M655.000000,995.000000 
	C436.666656,995.000000 218.833328,995.000000 1.000000,995.000000 
	C1.000000,663.666687 1.000000,332.333344 1.000000,1.000000 
	C331.000000,1.000000 661.000000,1.000000 991.000000,1.000000 
	C991.000000,332.333344 991.000000,663.666687 991.000000,995.000000 
	C879.166687,995.000000 767.333313,995.000000 655.000000,995.000000 
M499.918884,831.976074 
	C606.750793,831.984070 713.582703,831.996094 820.414612,831.958435 
	C821.887634,831.957886 823.360474,831.333191 825.222473,830.227661 
	C825.481628,828.493713 825.966980,826.759888 825.967590,825.025879 
	C826.003601,718.682434 826.000732,612.338989 825.993103,505.995575 
	C825.992981,504.335663 825.889160,502.675720 825.974731,500.507874 
	C825.927612,500.338593 825.880493,500.169342 825.977356,499.072540 
	C825.977356,389.821106 825.977356,280.569702 825.977356,171.304047 
	C605.707153,171.304047 386.003326,171.304047 166.314987,171.304047 
	C166.314987,391.645172 166.314987,611.681702 166.314987,831.983093 
	C168.605789,831.983093 170.582977,831.983032 172.560165,831.983032 
	C267.546722,831.983032 362.533264,831.988708 457.519836,831.976440 
	C470.347534,831.974792 483.175232,831.883118 496.742981,831.978210 
	C497.491943,831.930054 498.240906,831.881897 499.918884,831.976074 
z"/>
<path fill="#FFFFFF" opacity="1.000000" stroke="none" 
	d="
M496.002930,831.833130 
	C483.175232,831.883118 470.347534,831.974792 457.519836,831.976440 
	C362.533264,831.988708 267.546722,831.983032 172.560165,831.983032 
	C170.582977,831.983032 168.605789,831.983093 166.314987,831.983093 
	C166.314987,611.681702 166.314987,391.645172 166.314987,171.304047 
	C386.003326,171.304047 605.707153,171.304047 825.977356,171.304047 
	C825.977356,280.569702 825.977356,389.821106 825.691040,499.553894 
	C825.404785,500.035248 825.006287,500.196838 824.541016,500.133911 
	C716.046448,500.062622 608.017151,500.053802 499.987885,500.052032 
	C498.992065,500.052032 497.996246,500.146484 496.746765,500.161560 
	C496.384399,500.415894 496.275665,500.705505 496.096771,501.459412 
	C496.035278,611.242310 496.043945,720.560791 496.034485,830.205261 
	C496.011902,830.965149 496.007416,831.399170 496.002930,831.833130 
M579.493042,252.126389 
	C579.384338,252.415955 579.275635,252.705521 579.026611,253.923721 
	C579.026611,308.169373 579.026611,362.415009 579.026611,416.723969 
	C634.274170,416.723969 688.972961,416.723969 743.785461,416.723969 
	C743.873596,415.773804 743.985413,415.130798 743.985535,414.487762 
	C743.995728,361.847778 743.958557,309.207672 744.075012,256.567932 
	C744.084045,252.493942 742.270142,251.981461 738.910889,251.996857 
	C717.921997,252.093109 696.932434,252.027039 675.943054,252.049515 
	C643.962158,252.083771 611.981262,252.146317 579.493042,252.126389 
z"/>
<path fill="#FFFFFF" opacity="1.000000" stroke="none" 
	d="
M580.000061,582.196289 
	C606.647278,582.145630 633.294556,582.075684 659.941772,582.049866 
	C685.925659,582.024658 711.909607,582.044373 737.893494,582.044373 
	C739.702271,582.044373 741.511047,582.044434 743.658813,582.044434 
	C743.658813,637.044434 743.658813,691.737488 743.658813,746.738159 
	C688.950989,746.738159 634.256470,746.738159 579.026550,746.738159 
	C579.026550,692.406189 579.026550,638.164856 579.253113,583.345093 
	C579.679993,582.601013 579.853455,582.410889 580.000061,582.196289 
z"/>
</svg>