<?xml version="1.0" standalone="no"?>
<!DOCTYPE svg PUBLIC "-//W3C//DTD SVG 20010904//EN"
 "http://www.w3.org/TR/2001/REC-SVG-20010904/DTD/svg10.dtd">
 <svg version="1.0" xmlns="http://www.w3.org/2000/svg"
 width="862.154877pt" height="638.718433pt" viewBox="0 0 862.154877 638.718433"
 preserveAspectRatio="xMidYMid meet">
 <g transform="translate(-80.065620,703.023176) scale(0.100000,-0.100000)"
 fill="#000000" stroke="none">
  <!-- Fill -->
<path fill="#ffffff" d="M4911 6739 c-566 -60 -1081 -378 -1395 -861 -266 -409 -364 -933
-265 -1412 101 -494 402 -932 831 -1210 262 -170 574 -273 895 -297 166 -12
206 -25 237 -78 25 -43 24 -115 -1 -150 -40 -54 -75 -63 -219 -57 -356 15
-723 129 -1027 318 -251 155 -503 397 -664 638 -210 315 -331 660 -365 1043
l-12 128 -40 -5 c-23 -3 -70 -8 -106 -11 -265 -24 -603 -147 -835 -304 -457
-308 -747 -761 -842 -1316 -23 -138 -23 -452 0 -590 38 -219 91 -384 186 -574
103 -205 211 -350 387 -522 307 -298 679 -478 1109 -535 210 -28 499 -11 705
41 179 45 404 140 555 236 63 40 76 44 130 43 47 0 78 -8 145 -38 713 -321
1520 -190 2089 340 269 250 474 614 556 989 116 524 -7 1092 -329 1523 -188
251 -410 435 -691 573 -221 108 -446 169 -695 190 -74 6 -150 17 -168 25 -96
42 -96 201 1 247 90 43 429 -2 708 -93 872 -285 1465 -1078 1496 -2001 13
-372 -65 -728 -234 -1063 -147 -291 -401 -586 -666 -774 l-58 -41 29 -15 c59
-30 229 -95 316 -121 295 -85 648 -98 946 -33 562 121 1046 496 1308 1013 132
260 196 506 209 800 33 765 -396 1478 -1092 1815 -228 110 -449 170 -708 190
-226 17 -244 20 -272 42 -41 32 -52 66 -64 188 -58 577 -336 1051 -819 1393
-111 79 -335 192 -467 236 -256 84 -544 117 -804 90z"/>
 <!-- Outline -->
<path fill="rgba(0,0,0,0)" d="M4885 7019 c-350 -37 -697 -163 -995 -362 -241 -161 -483 -413 -638
-664 -143 -230 -246 -502 -292 -776 -11 -66 -20 -123 -20 -128 0 -5 -22 -9
-49 -9 -88 0 -293 -31 -426 -65 -881 -222 -1534 -954 -1650 -1848 -19 -148
-19 -437 0 -577 36 -271 111 -509 235 -747 564 -1084 1882 -1509 2974 -961 44
22 97 51 119 65 l39 25 102 -40 c347 -138 700 -189 1044 -151 211 23 480 93
647 168 l63 29 38 -25 c55 -38 287 -147 385 -181 344 -120 703 -156 1059 -106
724 103 1352 556 1675 1208 155 313 226 619 227 971 1 373 -74 693 -239 1018
-347 685 -1006 1135 -1769 1208 -71 7 -130 13 -131 14 -2 1 -12 55 -23 121
-126 741 -618 1365 -1304 1654 -329 140 -714 196 -1071 159z m401 -280 c233
-22 440 -82 659 -189 598 -292 989 -859 1056 -1530 12 -122 23 -156 64 -188
28 -22 46 -25 272 -42 632 -49 1187 -386 1520 -925 308 -495 368 -1143 157
-1688 -265 -688 -875 -1159 -1599 -1238 -225 -24 -519 2 -741 66 -87 26 -257
91 -316 121 l-29 15 58 41 c215 153 434 386 577 617 319 516 409 1154 245
1735 -173 614 -592 1114 -1158 1384 -260 124 -621 212 -869 212 -113 0 -172
-48 -172 -140 0 -56 29 -105 72 -124 18 -8 94 -19 168 -25 778 -63 1433 -578
1668 -1312 198 -617 62 -1298 -359 -1804 -223 -267 -534 -475 -870 -583 -447
-143 -930 -114 -1369 84 -67 30 -98 38 -145 38 -54 1 -67 -3 -130 -43 -151
-96 -376 -191 -555 -236 -206 -52 -495 -69 -705 -41 -430 57 -802 237 -1109
535 -176 172 -284 317 -387 522 -95 190 -148 355 -186 574 -23 138 -23 452 0
590 95 555 385 1008 842 1316 232 157 570 280 835 304 36 3 83 8 106 11 l40 5
12 -128 c34 -383 155 -728 365 -1043 161 -241 413 -483 664 -638 304 -189 671
-303 1027 -318 144 -6 179 3 219 57 25 35 26 107 1 150 -31 53 -71 66 -237 78
-250 18 -461 74 -685 181 -473 227 -833 638 -990 1131 -147 460 -112 958 98
1397 346 721 1098 1148 1886 1071z"/>
</g>
</svg>
